<?xml version="1.0" encoding="UTF-8"?>
<svg height="792" version="1.1" width="1224" xmlns="http://www.w3.org/2000/svg" xmlns:xlink="http://www.w3.org/1999/xlink">
 <path d="M0,0 l1224,0 l0,792 l-1224,0 Z M0,0" fill="rgb(243,199,91)" fill-opacity="0.6" transform="matrix(1,0,0,-1,0,792)"/>
 <path d="M581.0,-513.29 c227.62,227.62,227.62,596.66,0,824.28 c-227.62,227.62,-596.66,227.62,-824.28,0.0 c-227.62,-227.62,-227.62,-596.66,-0.0,-824.28 c227.62,-227.62,596.66,-227.62,824.28,-0.0 Z M581.0,-513.29" fill="rgb(173,240,251)" fill-opacity="0.7" transform="matrix(1,0,0,-1,0,792)"/>
 <path d="M1895.0,-360.59 c227.62,227.62,227.62,596.66,0,824.28 c-227.62,227.62,-596.66,227.62,-824.28,0.0 c-227.62,-227.62,-227.62,-596.66,-0.0,-824.28 c227.62,-227.62,596.66,-227.62,824.28,-0.0 Z M1895.0,-360.59" fill="rgb(245,112,120)" fill-opacity="0.7" transform="matrix(1,0,0,-1,0,792)"/>
 <path d="M1283.0,638.71 c227.62,227.62,227.62,596.66,0,824.28 c-227.62,227.62,-596.66,227.62,-824.28,0.0 c-227.62,-227.62,-227.62,-596.66,-0.0,-824.28 c227.62,-227.62,596.66,-227.62,824.28,-0.0 Z M1283.0,638.71" fill="rgb(139,173,228)" fill-opacity="0.7" transform="matrix(1,0,0,-1,0,792)"/>
</svg>